# xmcd
#
# Track frame offsets: 
#        150
#        18849
#        35493
#        57251
#        70883
#        87864
#        109957
#        124355
#        138678
#        162050
#        192562
#        206668
#        234320
#        254598
#        272119
#        289732
#
# Disc length: 4115 seconds
#
# Revision: 2
# Processed by: cddbd v1.5.1PL0 Copyright (c) Steve Scherf et al.
# Submitted via: ExactAudioCopy v0.95a4
#
DISCID=f3101110
DTITLE=Грассмейстер. - Лучшие партии.
DYEAR=2004
DGENRE=Country
TTITLE0=Белая песня
TTITLE1=Полный вперед
TTITLE2=Деревянная голова
TTITLE3=Я свободен, я гуляю...
TTITLE4=Весна
TTITLE5=Не все так плохо
TTITLE6=Работа
TTITLE7=Телефон
TTITLE8=Асфальтовый блюз
TTITLE9=Там, где солнечный свет
TTITLE10=Время цветов
TTITLE11=Трава по пояс
TTITLE12=Поехали, Дункель!
TTITLE13=Своя жена
TTITLE14=ГАИшник
TTITLE15=Как здорово!
EXTD=
EXTT0=
EXTT1=
EXTT2=
EXTT3=
EXTT4=
EXTT5=
EXTT6=
EXTT7=
EXTT8=
EXTT9=
EXTT10=
EXTT11=
EXTT12=
EXTT13=
EXTT14=
EXTT15=
PLAYORDER=
